<svg xmlns="http://www.w3.org/2000/svg" xmlns:xlink="http://www.w3.org/1999/xlink" width="91.322" height="91.324" viewBox="0 0 91.322 91.324">
  <defs>
    <filter id="Trazado_873158" x="0" y="0" width="91.322" height="91.324" filterUnits="userSpaceOnUse">
      <feOffset dy="3" input="SourceAlpha"/>
      <feGaussianBlur stdDeviation="3" result="blur"/>
      <feFlood flood-opacity="0.161"/>
      <feComposite operator="in" in2="blur"/>
      <feComposite in="SourceGraphic"/>
    </filter>
    <clipPath id="clip-path">
      <rect id="Rectángulo_401882" data-name="Rectángulo 401882" width="58.836" height="59" fill="none"/>
    </clipPath>
  </defs>
  <g id="Grupo_1103915" data-name="Grupo 1103915" transform="translate(-1263.107 -179)">
    <g id="Grupo_1099018" data-name="Grupo 1099018" transform="translate(1272.107 185)">
      <g transform="matrix(1, 0, 0, 1, -9, -6)" filter="url(#Trazado_873158)">
        <path id="Trazado_873158-2" data-name="Trazado 873158" d="M386.411,89.156A36.661,36.661,0,1,1,349.75,52.493,36.661,36.661,0,0,1,386.411,89.156Z" transform="translate(-304.09 -46.49)" fill="#fff"/>
      </g>
    </g>
    <g id="Grupo_1100439" data-name="Grupo 1100439" transform="translate(1276.164 188.5)">
      <g id="Grupo_1100453" data-name="Grupo 1100453" transform="translate(0 0)" clip-path="url(#clip-path)">
        <path id="Trazado_878226" data-name="Trazado 878226" d="M78.958,18.752V39.216c0,1.24-.873,1.744-1.947,1.124L50.831,25.225a4.306,4.306,0,0,1-1.947-3.372V1.389c0-1.24.873-1.744,1.947-1.124L77.011,15.38a4.306,4.306,0,0,1,1.947,3.372" transform="translate(-20.122 0)" fill="#3a5267"/>
        <path id="Trazado_878227" data-name="Trazado 878227" d="M78.213,19V39.464c0,1.24-.873,1.744-1.947,1.124L50.086,25.473A4.306,4.306,0,0,1,48.139,22.1V1.637c0-1.24.873-1.744,1.947-1.124l26.18,15.115A4.306,4.306,0,0,1,78.213,19" transform="translate(-19.816 -0.102)" fill="#eceff2"/>
        <path id="Trazado_878228" data-name="Trazado 878228" d="M78.213,19v1.163L48.139,2.8V1.637c0-1.24.873-1.744,1.947-1.124l26.18,15.115A4.306,4.306,0,0,1,78.213,19" transform="translate(-19.816 -0.102)" fill="#314b62"/>
        <path id="Trazado_878229" data-name="Trazado 878229" d="M78.213,34.08v1.566a38.3,38.3,0,0,1-4.028-2.062c-1.031-.6-1.388.113-1.93,1.412-.561,1.347-1.26,3.025-3.507,1.727A9.87,9.87,0,0,1,65.2,32.809a7.324,7.324,0,0,0-2.7-3.023c-1.826-1.054-2.685.065-3.678,1.364s-2.1,2.739-4.377,1.426a12.86,12.86,0,0,1-3.174-2.756,10.343,10.343,0,0,0-2.6-2.282c-.185-.107-.365-.2-.537-.288V25.7c.175.089.352.185.537.292a12.822,12.822,0,0,1,3.158,2.744,10.347,10.347,0,0,0,2.615,2.294c1.522.879,2.315-.152,3.232-1.349,1.053-1.374,2.245-2.93,4.823-1.442a10.025,10.025,0,0,1,3.617,3.98,7.173,7.173,0,0,0,2.626,2.958c1.264.73,1.681-.078,2.255-1.46.527-1.262,1.181-2.834,3.182-1.679a35.821,35.821,0,0,0,4.028,2.046" transform="translate(-19.816 -10.577)" fill="#fff"/>
        <path id="Trazado_878230" data-name="Trazado 878230" d="M78.213,33.026v1.566a38.184,38.184,0,0,1-4.028-2.062c-1.031-.6-1.388.113-1.93,1.412-.561,1.347-1.26,3.025-3.507,1.727A9.87,9.87,0,0,1,65.2,31.755a7.324,7.324,0,0,0-2.7-3.023c-1.826-1.054-2.685.065-3.678,1.364s-2.1,2.739-4.377,1.426a12.86,12.86,0,0,1-3.174-2.757,10.343,10.343,0,0,0-2.6-2.282c-.185-.107-.365-.2-.537-.288V24.642c.175.089.352.185.537.292a12.822,12.822,0,0,1,3.158,2.744,10.347,10.347,0,0,0,2.615,2.294c1.522.879,2.315-.152,3.232-1.349,1.053-1.374,2.245-2.93,4.823-1.442a10.025,10.025,0,0,1,3.617,3.98,7.173,7.173,0,0,0,2.626,2.958c1.264.73,1.681-.078,2.255-1.46.527-1.262,1.181-2.834,3.182-1.679a35.821,35.821,0,0,0,4.028,2.046" transform="translate(-19.816 -10.143)" fill="#eaaf8b"/>
        <path id="Trazado_878231" data-name="Trazado 878231" d="M57.509,19.4l-6.176-3.566V10.25l6.176,3.566Z" transform="translate(-21.13 -4.219)" fill="#0e2239"/>
        <path id="Trazado_878232" data-name="Trazado 878232" d="M86.088,54.333,72.327,46.388V44.372l13.761,7.945Z" transform="translate(-29.772 -18.265)" fill="#3a5267"/>
        <path id="Trazado_878233" data-name="Trazado 878233" d="M51.11,2.959c.209.363.209.756,0,.877s-.55-.075-.76-.438-.209-.756,0-.877.55.075.76.438" transform="translate(-20.661 -1.023)" fill="#9da7b2"/>
        <path id="Trazado_878234" data-name="Trazado 878234" d="M53.734,4.474c.209.363.209.756,0,.877s-.55-.075-.76-.438-.209-.755,0-.877.55.075.76.438" transform="translate(-21.741 -1.647)" fill="#9da7b2"/>
        <path id="Trazado_878235" data-name="Trazado 878235" d="M56.358,5.989c.21.363.21.756,0,.877s-.55-.075-.76-.439-.209-.755,0-.877.55.075.76.438" transform="translate(-22.821 -2.27)" fill="#9da7b2"/>
        <path id="Trazado_878236" data-name="Trazado 878236" d="M58.982,7.5c.209.364.209.756,0,.877s-.55-.075-.76-.439-.209-.755,0-.877.55.075.76.438" transform="translate(-23.901 -2.894)" fill="#9da7b2"/>
        <path id="Trazado_878237" data-name="Trazado 878237" d="M34.606,14.086v.528l4.141,2.49v-.528Z" transform="translate(-14.245 -5.798)" fill="#f98786"/>
        <path id="Trazado_878238" data-name="Trazado 878238" d="M28.6,25.968l-2.836-1.648L31.6,14.2l2.836,1.647Z" transform="translate(-10.604 -5.846)" fill="#fba6a5"/>
        <path id="Trazado_878239" data-name="Trazado 878239" d="M9.685,49.784,6.849,48.136,11.964,37.3,14.8,38.945Z" transform="translate(-2.819 -15.353)" fill="#fba6a5"/>
        <path id="Trazado_878240" data-name="Trazado 878240" d="M18.379,36.516l-2.836-1.648L21.555,31.4l2.836,1.648Z" transform="translate(-6.398 -12.924)" fill="#febfbe"/>
        <path id="Trazado_878241" data-name="Trazado 878241" d="M2.836,59.693,0,58.045l4.03-2.327,2.835,1.648Z" transform="translate(0 -22.936)" fill="#febfbe"/>
        <path id="Trazado_878242" data-name="Trazado 878242" d="M2.836,61.813,0,60.165v-.491l2.836,1.648Z" transform="translate(0 -24.564)" fill="#fba6a5"/>
        <path id="Trazado_878243" data-name="Trazado 878243" d="M25.819,17l.3.174L20.156,27.511l-5.975,3.45L9.065,41.8,4.819,44.248v-.491l4.03-2.327,5.116-10.839,6.012-3.471Z" transform="translate(-1.984 -6.999)" fill="#f98786"/>
        <path id="Trazado_878244" data-name="Trazado 878244" d="M38.536,10.24,34.563,12.5l4.166,2.489Z" transform="translate(-14.227 -4.215)" fill="#fba6a5"/>
        <path id="Trazado_878245" data-name="Trazado 878245" d="M54.869,66.851l-17.04,9.838L13.717,62.768,30.758,52.93Z" transform="translate(-5.646 -21.788)" fill="#eceff2"/>
        <path id="Trazado_878246" data-name="Trazado 878246" d="M37.8,83.711v4.017L13.692,73.807V69.79Z" transform="translate(-5.636 -28.728)" fill="#d8e0e5"/>
        <path id="Trazado_878247" data-name="Trazado 878247" d="M54.717,86.453l-.045,4.017,17.183-10V76.453Z" transform="translate(-22.505 -31.471)" fill="#adbcc7"/>
        <path id="Trazado_878248" data-name="Trazado 878248" d="M31.26,73.536l-1.159.669-4.415-2.549,1.159-.67Z" transform="translate(-10.573 -29.221)" fill="#314b62"/>
        <path id="Trazado_878249" data-name="Trazado 878249" d="M32.7,71.185l-1.159.669L25.249,68.22l1.159-.67Z" transform="translate(-10.393 -27.806)" fill="#314b62"/>
        <path id="Trazado_878250" data-name="Trazado 878250" d="M36.334,70.1l-1.159.669-5.047-2.914,1.16-.669Z" transform="translate(-12.402 -27.655)" fill="#314b62"/>
        <path id="Trazado_878251" data-name="Trazado 878251" d="M39.763,68.891l-1.159.67L34.515,67.2l1.159-.669Z" transform="translate(-14.207 -27.386)" fill="#314b62"/>
        <path id="Trazado_878252" data-name="Trazado 878252" d="M41.467,66.69l-1.159.669-5.6-3.231,1.159-.669Z" transform="translate(-14.289 -26.122)" fill="#314b62"/>
        <path id="Trazado_878253" data-name="Trazado 878253" d="M45.235,65.68l-1.159.67-4.152-2.4,1.159-.669Z" transform="translate(-16.434 -26.05)" fill="#314b62"/>
        <path id="Trazado_878254" data-name="Trazado 878254" d="M45.911,62.885l-1.159.669-7.129-4.116,1.159-.67Z" transform="translate(-15.487 -24.191)" fill="#314b62"/>
        <path id="Trazado_878255" data-name="Trazado 878255" d="M48.277,61.066l-1.159.67L39.429,57.3l1.159-.669Z" transform="translate(-16.23 -23.31)" fill="#314b62"/>
        <path id="Trazado_878256" data-name="Trazado 878256" d="M42.149,72l-6.24,3.6-.7-.4,6.241-3.6Z" transform="translate(-14.493 -29.471)" fill="#3a5267"/>
        <path id="Trazado_878257" data-name="Trazado 878257" d="M44.38,73.286l-6.24,3.6-.7-.4,6.24-3.6Z" transform="translate(-15.411 -30.001)" fill="#3a5267"/>
        <path id="Trazado_878258" data-name="Trazado 878258" d="M46.61,74.574l-6.24,3.6-.7-.4,6.24-3.6Z" transform="translate(-16.329 -30.531)" fill="#3a5267"/>
        <path id="Trazado_878259" data-name="Trazado 878259" d="M48.84,75.862l-6.24,3.6-.7-.4,6.241-3.6Z" transform="translate(-17.247 -31.061)" fill="#3a5267"/>
        <path id="Trazado_878260" data-name="Trazado 878260" d="M64.357,71.923l-7.071,4.083-.7-.4,7.071-4.083Z" transform="translate(-23.293 -29.439)" fill="#3a5267"/>
        <path id="Trazado_878261" data-name="Trazado 878261" d="M66.587,73.21l-7.071,4.083-.7-.4,7.072-4.083Z" transform="translate(-24.211 -29.969)" fill="#3a5267"/>
        <path id="Trazado_878262" data-name="Trazado 878262" d="M68.818,74.5l-7.071,4.083-.7-.4,7.071-4.083Z" transform="translate(-25.129 -30.5)" fill="#3a5267"/>
        <path id="Trazado_878263" data-name="Trazado 878263" d="M71.212,75.881l-7.071,4.083-.7-.4,7.071-4.083Z" transform="translate(-26.114 -31.069)" fill="#3a5267"/>
        <path id="Trazado_878264" data-name="Trazado 878264" d="M55.054,67.048v1.946L52.67,67.618a4.871,4.871,0,0,1,2.384-.57" transform="translate(-21.681 -27.599)" fill="#eaaf8b"/>
        <path id="Trazado_878265" data-name="Trazado 878265" d="M57.734,69.393a1.674,1.674,0,0,1-.987,1.377,5.273,5.273,0,0,1-4.77,0,1.454,1.454,0,0,1,0-2.754l2.385,1.377Z" transform="translate(-20.99 -27.998)" fill="#f64b48"/>
        <path id="Trazado_878266" data-name="Trazado 878266" d="M59.107,67.617a1.676,1.676,0,0,1,.987,1.377H56.723V67.047a4.874,4.874,0,0,1,2.384.57" transform="translate(-23.349 -27.599)" fill="#324255"/>
        <path id="Trazado_878267" data-name="Trazado 878267" d="M51.007,83.987l-1.459-.864.688-1.5.207-.907.8-.855-.225-1.156.471-.665,4.978,2.875s-5.484,2.891-5.458,3.072" transform="translate(-20.396 -32.124)" fill="#3a5267"/>
        <path id="Trazado_878268" data-name="Trazado 878268" d="M52.269,85.036l-2.25-1.3,1.48-1.064.207-.907.8-.855-.225-1.156.471-.665,4.978,2.875s-5.484,2.891-5.458,3.072" transform="translate(-20.589 -32.556)" fill="#f64b48"/>
        <path id="Trazado_878269" data-name="Trazado 878269" d="M53.116,85.525l-1.2-.7.726-1.52h1.63l-.682-1.73,1.473-.221-.416-1.177,3.864,2.232Z" transform="translate(-21.368 -33.005)" fill="#eaaf8b"/>
        <path id="Trazado_878270" data-name="Trazado 878270" d="M33.2,41.393c-1.76,1.023-2.636,2.361-2.641,3.7V42.02c0-1.34.89-2.678,2.649-3.7a13.8,13.8,0,0,1,8.162-1.447l-.009,3.074A13.8,13.8,0,0,0,33.2,41.393" transform="translate(-12.579 -15.138)" fill="#d3c8c8"/>
        <path id="Trazado_878271" data-name="Trazado 878271" d="M53.622,41.46a12.225,12.225,0,0,0-4.7-1.447q0-1.537.008-3.074a12.225,12.225,0,0,1,4.7,1.447c1.794,1.036,2.685,2.395,2.681,3.753v3.074c0-1.358-.9-2.717-2.689-3.753" transform="translate(-20.137 -15.206)" fill="#d3c8c8"/>
        <path id="Trazado_878272" data-name="Trazado 878272" d="M59.635,45.776V48.85c0,1.34-.884,2.678-2.644,3.7V49.476c1.759-1.022,2.64-2.36,2.644-3.7" transform="translate(-23.459 -18.843)" fill="#9da7b2"/>
        <path id="Trazado_878273" data-name="Trazado 878273" d="M30.558,48.763V45.689c0,1.357.9,2.716,2.69,3.751a14.169,14.169,0,0,0,12.862,0v3.074a14.189,14.189,0,0,1-12.871,0c-1.794-1.036-2.685-2.395-2.681-3.752" transform="translate(-12.579 -18.807)" fill="#9da7b2"/>
        <path id="Trazado_878274" data-name="Trazado 878274" d="M49.272,45.741v3.074c0,1.593-1.056,3.185-3.148,4.4a16.859,16.859,0,0,1-15.3,0c-2.133-1.231-3.194-2.848-3.19-4.462V45.679c0,1.614,1.065,3.231,3.2,4.462a16.859,16.859,0,0,0,15.3,0c2.092-1.216,3.135-2.807,3.14-4.4" transform="translate(-11.375 -18.803)" fill="#f43937"/>
        <path id="Trazado_878275" data-name="Trazado 878275" d="M46.086,36.916a16.859,16.859,0,0,0-15.3,0c-4.212,2.448-4.19,6.415.049,8.863a16.859,16.859,0,0,0,15.3,0c4.212-2.448,4.19-6.415-.049-8.863M47.527,41.8a4.792,4.792,0,0,1-2.617,3.271,14.164,14.164,0,0,1-12.862,0,4.831,4.831,0,0,1-2.655-3.307c-.211-1.484.659-3.009,2.615-4.146a14.184,14.184,0,0,1,12.866,0c1.983,1.144,2.869,2.685,2.654,4.182" transform="translate(-11.378 -14.44)" fill="#f64b48"/>
        <path id="Trazado_878276" data-name="Trazado 878276" d="M48.752,43.112a4.792,4.792,0,0,1-2.617,3.271,14.164,14.164,0,0,1-12.862,0,4.831,4.831,0,0,1-2.655-3.307,4.783,4.783,0,0,1,2.615-3.271,14.169,14.169,0,0,1,12.866,0,4.824,4.824,0,0,1,2.654,3.307" transform="translate(-12.603 -15.75)" fill="#f0eeee"/>
        <path id="Trazado_878277" data-name="Trazado 878277" d="M62.276,52.438l4.218,2.451a.959.959,0,0,0-.967.1L61.31,52.532a.958.958,0,0,1,.966-.094" transform="translate(-25.237 -21.547)" fill="#547087"/>
        <path id="Trazado_878278" data-name="Trazado 878278" d="M63.323,56.816a2.25,2.25,0,0,0-.1.642.949.949,0,0,0,.394.873L59.4,55.878a.955.955,0,0,1-.4-.869,2.326,2.326,0,0,1,.1-.63,2.687,2.687,0,0,1,.171-.455,2.876,2.876,0,0,1,1.087-1.263l4.217,2.452a3.11,3.11,0,0,0-1.255,1.7" transform="translate(-24.289 -21.677)" fill="#85909f"/>
        <path id="Trazado_878279" data-name="Trazado 878279" d="M63.567,57.245a2.847,2.847,0,0,0-.175.455l-4.22-2.437a2.5,2.5,0,0,1,.171-.455Z" transform="translate(-24.357 -22.561)" fill="#fff"/>
        <path id="Trazado_878280" data-name="Trazado 878280" d="M67.53,56.7c.75-.433,1.361-.086,1.363.777a2.985,2.985,0,0,1-1.354,2.346c-.75.433-1.36.084-1.362-.778A2.982,2.982,0,0,1,67.53,56.7" transform="translate(-27.241 -23.263)" fill="#fba6a5"/>
        <path id="Trazado_878281" data-name="Trazado 878281" d="M69.605,55.994l8.435,4.9a1.158,1.158,0,0,0-1.168.114l-8.435-4.9a1.158,1.158,0,0,1,1.168-.114" transform="translate(-28.171 -23.003)" fill="#f64b48"/>
        <path id="Trazado_878282" data-name="Trazado 878282" d="M75.726,61.167a3.325,3.325,0,0,0-1.118,1.157,3.6,3.6,0,0,0-.357.772A2.78,2.78,0,0,0,74.09,64a1.159,1.159,0,0,0,.478,1.052l-8.435-4.9a1.159,1.159,0,0,1-.48-1.051,2.9,2.9,0,0,1,.155-.878,3.7,3.7,0,0,1,.353-.78,3.287,3.287,0,0,1,1.13-1.177Z" transform="translate(-27.025 -23.161)" fill="#f64b48"/>
        <path id="Trazado_878283" data-name="Trazado 878283" d="M81.629,64.44c.906-.523,1.644-.1,1.647.939a3.606,3.606,0,0,1-1.636,2.834c-.907.524-1.645.1-1.648-.938a3.606,3.606,0,0,1,1.637-2.834" transform="translate(-32.927 -26.433)" fill="#f43937"/>
        <path id="Trazado_878284" data-name="Trazado 878284" d="M42.782,40.017v3.424L38.588,41.02a8.575,8.575,0,0,1,4.194-1" transform="translate(-15.884 -16.472)" fill="#eaaf8b"/>
        <path id="Trazado_878285" data-name="Trazado 878285" d="M47.5,44.142a2.946,2.946,0,0,1-1.735,2.422,9.273,9.273,0,0,1-8.39,0,2.944,2.944,0,0,1-1.736-2.421,2.949,2.949,0,0,1,1.737-2.422l4.193,2.421Z" transform="translate(-14.669 -17.174)" fill="#f98786"/>
        <path id="Trazado_878286" data-name="Trazado 878286" d="M49.91,41.02a2.947,2.947,0,0,1,1.736,2.421h-5.93V40.017a8.577,8.577,0,0,1,4.194,1" transform="translate(-18.818 -16.472)" fill="#475f73"/>
        <path id="Trazado_878287" data-name="Trazado 878287" d="M30.544,38.433a7.2,7.2,0,0,0-2.414,2.388,3.719,3.719,0,0,0-.324,3.131,4.886,4.886,0,0,0,.821,1.385,6.134,6.134,0,0,0,1.224,1.1,10.823,10.823,0,0,0,3.041,1.406,20.412,20.412,0,0,0,10.174.24,14.153,14.153,0,0,0,3.253-1.174l.025.039a15.3,15.3,0,0,1-6.652,1.989,18.437,18.437,0,0,1-6.936-.648A10.826,10.826,0,0,1,29.6,46.782a5.653,5.653,0,0,1-2.143-2.716,4,4,0,0,1,.46-3.376,6.944,6.944,0,0,1,2.6-2.3Z" transform="translate(-11.226 -15.803)" fill="#fff"/>
      </g>
    </g>
  </g>
</svg>
