<svg xmlns="http://www.w3.org/2000/svg" xmlns:xlink="http://www.w3.org/1999/xlink" width="96.501" height="96.5" viewBox="0 0 96.501 96.5">
  <defs>
    <filter id="Trazado_873160" x="0" y="0" width="96.501" height="96.5" filterUnits="userSpaceOnUse">
      <feOffset dy="3" input="SourceAlpha"/>
      <feGaussianBlur stdDeviation="3" result="blur"/>
      <feFlood flood-opacity="0.161"/>
      <feComposite operator="in" in2="blur"/>
      <feComposite in="SourceGraphic"/>
    </filter>
    <clipPath id="clip-path">
      <rect id="Rect치ngulo_401881" data-name="Rect치ngulo 401881" width="21.333" height="64.009" fill="none"/>
    </clipPath>
    <clipPath id="clip-path-3">
      <rect id="Rect치ngulo_401879" data-name="Rect치ngulo 401879" width="21.333" height="26.755" fill="none"/>
    </clipPath>
  </defs>
  <g id="Grupo_1103916" data-name="Grupo 1103916" transform="translate(11107.333 19340.5)">
    <g id="Grupo_1099024" data-name="Grupo 1099024" transform="translate(-11098.333 -19334.5)">
      <g transform="matrix(1, 0, 0, 1, -9, -6)" filter="url(#Trazado_873160)">
        <path id="Trazado_873160-2" data-name="Trazado 873160" d="M313.261,134.345A39.251,39.251,0,1,1,274.011,95.1,39.251,39.251,0,0,1,313.261,134.345Z" transform="translate(-225.76 -89.1)" fill="#fff"/>
      </g>
    </g>
    <g id="Grupo_1100438" data-name="Grupo 1100438" transform="translate(-11070.333 -19326.215)">
      <g id="Grupo_1100451" data-name="Grupo 1100451" clip-path="url(#clip-path)">
        <g id="Grupo_1100450" data-name="Grupo 1100450" transform="translate(0 0)">
          <g id="Grupo_1100449" data-name="Grupo 1100449" clip-path="url(#clip-path)">
            <g id="Grupo_1100448" data-name="Grupo 1100448" transform="translate(0 37.254)" opacity="0.7">
              <g id="Grupo_1100447" data-name="Grupo 1100447">
                <g id="Grupo_1100446" data-name="Grupo 1100446" clip-path="url(#clip-path-3)">
                  <path id="Trazado_878193" data-name="Trazado 878193" d="M20.86,71.589a3.576,3.576,0,0,1-3.521,5.325,4.919,4.919,0,0,1-8.124,4.328,3.458,3.458,0,1,1-6.534-2.27A3.129,3.129,0,0,1,1.575,73.16a1.438,1.438,0,0,1,.166-.081,9.675,9.675,0,0,0,5.941-6.6c.909-3.889,1.793-7.687,1.693-7.3.492.031,2.669-1.284,4.35-2.279.073-1.162,1.677,14.4,2.764,13.773,1.714-.981,4.315.823,4.372.923" transform="translate(0 -56.831)" fill="#85909f"/>
                </g>
              </g>
            </g>
            <path id="Trazado_878194" data-name="Trazado 878194" d="M19.451,58.707a10.288,10.288,0,0,1-3.47,3.755,10.292,10.292,0,0,1-3.512-3.716c-1.4-2.523,1.563-6.637,1.563-6.637.218,0,1.892.11,1.892.11s1.672-.13,1.891-.132c0,0,3,4.081,1.637,6.619" transform="translate(-4.167 -17.944)" fill="#fcad7f"/>
            <path id="Trazado_878195" data-name="Trazado 878195" d="M19.367,58.287a9.075,9.075,0,0,1-3.195,3.362,9,9,0,0,1-3.2-3.311c-1.105-2.133,1.665-5.448,1.665-5.448.164,0,1.51.172,1.51.172s1.344-.188,1.508-.189c0,0,2.793,3.268,1.712,5.413" transform="translate(-4.379 -18.215)" fill="#fdc39a"/>
            <path id="Trazado_878196" data-name="Trazado 878196" d="M19.275,57.866a7.958,7.958,0,0,1-2.919,2.969,7.8,7.8,0,0,1-2.891-2.906c-.814-1.743,1.769-4.258,1.769-4.258.109,0,1.129.235,1.129.235s1.017-.246,1.126-.247c0,0,2.581,2.456,1.786,4.208" transform="translate(-4.584 -18.485)" fill="#fed7b5"/>
            <path id="Trazado_878197" data-name="Trazado 878197" d="M19.174,57.444C18.665,58.8,16.53,60.02,16.53,60.02a6.691,6.691,0,0,1-2.581-2.5c-.523-1.353,1.873-3.069,1.873-3.069.054,0,.747.3.747.3s.689-.305.744-.305c0,0,2.37,1.643,1.861,3" transform="translate(-4.779 -18.755)" fill="#fee7ce"/>
            <path id="Trazado_878198" data-name="Trazado 878198" d="M19.06,57.024c-.222.966-2.368,2.182-2.368,2.182s-2.039-1.133-2.271-2.1S16.4,55.231,16.4,55.231l.366.359.362-.363s2.158.831,1.936,1.8" transform="translate(-4.962 -19.025)" fill="#fff6e4"/>
            <path id="Trazado_878199" data-name="Trazado 878199" d="M10.166,46.556A3.571,3.571,0,0,0,8,46.436a5.283,5.283,0,0,0-1.958,1.519l-.175,3.869a31.388,31.388,0,0,1,2.543-2.505c.327-.133,1.576.45,1.576.45Z" transform="translate(-2.022 -15.947)" fill="#556b7f"/>
            <path id="Trazado_878200" data-name="Trazado 878200" d="M8.182,47.806s-2.293.21-2.682.933a68.222,68.222,0,0,0-1.4,6.825l.722.258s1.877-4.4,2.2-4.536,1.576.45,1.576.45Z" transform="translate(-1.411 -16.469)" fill="#3a5267"/>
            <path id="Trazado_878201" data-name="Trazado 878201" d="M23.9,46.483a3.566,3.566,0,0,1,2.163-.143,5.288,5.288,0,0,1,1.975,1.5l.218,3.866a31.274,31.274,0,0,0-2.571-2.477c-.328-.129-1.571.467-1.571.467Z" transform="translate(-8.233 -15.917)" fill="#556b7f"/>
            <path id="Trazado_878202" data-name="Trazado 878202" d="M25.81,47.718s2.3.184,2.693.9a68.256,68.256,0,0,1,1.48,6.809l-.72.267s-1.925-4.381-2.254-4.511-1.571.467-1.571.467Z" transform="translate(-8.763 -16.438)" fill="#3a5267"/>
            <path id="Trazado_878203" data-name="Trazado 878203" d="M10.656,53.786a5.623,5.623,0,0,1-1.413-1.165,5.3,5.3,0,0,1-.458-.611,4.8,4.8,0,0,1-.6-1.335,4.694,4.694,0,0,1-.173-1.261,3.118,3.118,0,0,0,1.8,2.549,9.843,9.843,0,0,0,8.933.04,3.181,3.181,0,0,0,1.9-2.625c-.009.232-.029.542-.061.772a3.924,3.924,0,0,1-.123.555,6.057,6.057,0,0,1-.267.716,4.808,4.808,0,0,1-.386.684,5.819,5.819,0,0,1-.423.547,5.651,5.651,0,0,1-.715.674,6.043,6.043,0,0,1-.642.441,6.7,6.7,0,0,1-.808.408,7.09,7.09,0,0,1-1.519.446,7.967,7.967,0,0,1-1.768.111,7.713,7.713,0,0,1-1.769-.294,6.567,6.567,0,0,1-1.514-.652" transform="translate(-2.762 -17.011)" fill="#eaaf8b"/>
            <path id="Trazado_878204" data-name="Trazado 878204" d="M7.04,43.617,5.095,31.341A4.333,4.333,0,0,0,7.41,34.233a12.833,12.833,0,0,0,11.647.052A4.422,4.422,0,0,0,21.5,31.294L19.623,43.582a3.39,3.39,0,0,1-1.875,2.295,9.843,9.843,0,0,1-8.933-.041A3.322,3.322,0,0,1,7.04,43.617" transform="translate(-1.755 -10.781)" fill="#f43937"/>
            <path id="Trazado_878205" data-name="Trazado 878205" d="M4.949,23.287c-.13-.874-.169-1.2-.2-1.628-.031-.472-.063-1.1-.077-1.574-.008-.254,0-.592,0-.845a22.563,22.563,0,0,1,.452-3.988A21.487,21.487,0,0,1,8.083,7.943c-.7,1.095-.309,2.373,1.192,3.259a8.361,8.361,0,0,0,7.589.034c1.569-.892,2-2.2,1.27-3.321.231.37.532.869.75,1.247.123.214.269.507.383.725,0,.006.345.675.656,1.428.094.229.219.535.3.768.153.432.345,1.012.481,1.449.056.178.264.921.41,1.616a22.4,22.4,0,0,1,.239,8.092,4.42,4.42,0,0,1-2.444,2.991A12.833,12.833,0,0,1,7.263,26.18a4.3,4.3,0,0,1-2.314-2.893" transform="translate(-1.609 -2.727)" fill="#f64b48"/>
            <path id="Trazado_878206" data-name="Trazado 878206" d="M9.7,7.217c.427-.659.787-1.142.963-1.372-.719.937-.427,2.071.884,2.846a6.92,6.92,0,0,0,6.281.028c1.368-.777,1.687-1.94.945-2.895.332.429.659.889.971,1.366.732,1.118.305,2.433-1.266,3.327a8.362,8.362,0,0,1-7.588-.035C9.386,9.594,8.993,8.312,9.7,7.217" transform="translate(-3.225 -2.006)" fill="#fb9c66"/>
            <path id="Trazado_878207" data-name="Trazado 878207" d="M18.314,6.712a6.918,6.918,0,0,1-6.281-.028c-1.315-.779-1.609-1.917-.878-2.853a17.48,17.48,0,0,1,2.651-2.772.541.541,0,0,0-.06.057c.108-.1,1.348-1.029,1.446-1.116a18.182,18.182,0,0,1,1.492,1.148,15.692,15.692,0,0,1,2.57,2.659c.75.958.427,2.127-.941,2.9" transform="translate(-3.708 0)" fill="#f85f5d"/>
            <path id="Trazado_878208" data-name="Trazado 878208" d="M12.546,36.489a2.827,2.827,0,0,1,3.049-2.526h.043a2.814,2.814,0,0,1,3.029,2.492,2.816,2.816,0,0,1-3,2.522h-.043a2.827,2.827,0,0,1-3.077-2.488m3.087-3.457h-.043c-2.321.013-4.191,1.561-4.18,3.464a3.175,3.175,0,0,0,1.333,2.491,4.714,4.714,0,0,0,2.886.922l.043,0c2.295-.031,4.147-1.569,4.137-3.456a3.083,3.083,0,0,0-1.063-2.264,4.612,4.612,0,0,0-3.113-1.152" transform="translate(-3.93 -11.379)" fill="#f3f1f1"/>
            <path id="Trazado_878209" data-name="Trazado 878209" d="M12.548,37.009A2.827,2.827,0,0,1,15.6,34.483h.044a2.813,2.813,0,0,1,3.029,2.492,2.816,2.816,0,0,1-3,2.522h-.043a2.826,2.826,0,0,1-3.077-2.488m3.087-3.457h-.043c-2.321.013-4.191,1.561-4.18,3.464a3.175,3.175,0,0,0,1.333,2.491,4.714,4.714,0,0,0,2.886.922l.043,0c2.295-.031,4.147-1.569,4.137-3.456A3.083,3.083,0,0,0,18.749,34.7a4.612,4.612,0,0,0-3.113-1.152" transform="translate(-3.931 -11.558)" fill="#fff"/>
            <path id="Trazado_878210" data-name="Trazado 878210" d="M18.995,36.438a3.135,3.135,0,0,0-2.756-1.466h-.043A2.828,2.828,0,0,0,13.146,37.5a2.342,2.342,0,0,0,1.089,1.9,3.461,3.461,0,0,0,1.987.586h.043a2.816,2.816,0,0,0,3-2.522,2.121,2.121,0,0,0-.273-1.026" transform="translate(-4.529 -12.048)" fill="#85909f"/>
            <path id="Trazado_878211" data-name="Trazado 878211" d="M19.425,36.9a3.459,3.459,0,0,0-1.937-.581h-.043A2.826,2.826,0,0,0,14.4,38.849a2.113,2.113,0,0,0,.27,1.017,3.461,3.461,0,0,0,1.987.586H16.7a2.816,2.816,0,0,0,3-2.522,2.121,2.121,0,0,0-.273-1.026" transform="translate(-4.959 -12.513)" fill="#8faecc"/>
            <path id="Trazado_878212" data-name="Trazado 878212" d="M15.5,36.9a.336.336,0,1,0,0,.662.336.336,0,1,0,0-.662" transform="translate(-5.205 -12.713)" fill="#fff"/>
            <path id="Trazado_878213" data-name="Trazado 878213" d="M5.4,64.844l-1.051-.36c-.2-.07-.318-.345-.258-.712l1.052.36c-.06.367.053.642.258.712" transform="translate(-1.405 -21.969)" fill="#556b7f"/>
            <path id="Trazado_878214" data-name="Trazado 878214" d="M7.46,52.022l-1.051-.361L8.67,48.178l1.051.36Z" transform="translate(-2.208 -16.597)" fill="#556b7f"/>
            <path id="Trazado_878215" data-name="Trazado 878215" d="M5.154,61.616,4.1,61.256l.768-4.788,1.051.361Z" transform="translate(-1.413 -19.453)" fill="#556b7f"/>
            <path id="Trazado_878216" data-name="Trazado 878216" d="M6.325,55.8l-1.051-.36a5.2,5.2,0,0,1,.743-1.951l1.051.361A5.211,5.211,0,0,0,6.325,55.8" transform="translate(-1.817 -18.427)" fill="#556b7f"/>
            <path id="Trazado_878217" data-name="Trazado 878217" d="M9.471,48.727l.457,5.146L7.82,55.5,6.764,58.955a1.118,1.118,0,0,1-.5.673c-.382.182-.649-.154-.564-.679l.768-4.787c.1-1.725,3-5.435,3-5.435" transform="translate(-1.957 -16.786)" fill="#3a5267"/>
            <path id="Trazado_878218" data-name="Trazado 878218" d="M30.389,64.7l1.048-.372c.2-.072.313-.349.25-.715l-1.048.372c.063.366-.047.642-.25.715" transform="translate(-10.469 -21.914)" fill="#556b7f"/>
            <path id="Trazado_878219" data-name="Trazado 878219" d="M27.14,51.915l1.048-.372-2.3-3.458-1.048.372Z" transform="translate(-8.557 -16.565)" fill="#556b7f"/>
            <path id="Trazado_878220" data-name="Trazado 878220" d="M30.338,61.474l1.048-.372-.822-4.779-1.048.372Z" transform="translate(-10.168 -19.403)" fill="#556b7f"/>
            <path id="Trazado_878221" data-name="Trazado 878221" d="M29.115,55.675l1.048-.372A5.206,5.206,0,0,0,29.4,53.36l-1.048.372a5.2,5.2,0,0,1,.765,1.942" transform="translate(-9.766 -18.382)" fill="#556b7f"/>
            <path id="Trazado_878222" data-name="Trazado 878222" d="M24.63,48.652l-.4,5.15,2.125,1.6,1.1,3.446a1.118,1.118,0,0,0,.509.667c.383.178.647-.161.557-.685L27.7,54.053a5.211,5.211,0,0,0-.766-1.942Z" transform="translate(-8.347 -16.76)" fill="#3a5267"/>
            <path id="Trazado_878223" data-name="Trazado 878223" d="M9.428,13.4c-.833-.63-2.234,2.744-2.536,6.12a19.718,19.718,0,0,0,.923,6.985s-.039-5.295.162-6.549c.885-5.531,2.258-5.946,1.451-6.556" transform="translate(-2.358 -4.591)" fill="#fb9f9d"/>
            <path id="Trazado_878224" data-name="Trazado 878224" d="M15.35,24.3V22.543a2.311,2.311,0,0,1-1.205-.711,1.782,1.782,0,0,1-.383-1.155,1.636,1.636,0,0,1,.434-1.155,1.746,1.746,0,0,1,1.155-.538v-.415h.608v.415a1.8,1.8,0,0,1,1.061.455,1.355,1.355,0,0,1,.5,1l-1.061.138a.854.854,0,0,0-.5-.671v1.639a2.708,2.708,0,0,1,1.371.707,1.67,1.67,0,0,1,.364,1.113,1.861,1.861,0,0,1-.459,1.278,2.015,2.015,0,0,1-1.276.637v.784H15.35v-.763a1.935,1.935,0,0,1-1.178-.541,2.222,2.222,0,0,1-.579-1.278l1.094-.117a1.4,1.4,0,0,0,.252.578,1.135,1.135,0,0,0,.411.352m0-4.4a.782.782,0,0,0-.394.285.732.732,0,0,0-.147.444.7.7,0,0,0,.134.412.933.933,0,0,0,.407.308Zm.608,4.46a.853.853,0,0,0,.511-.292.816.816,0,0,0,.2-.547.745.745,0,0,0-.166-.484,1.06,1.06,0,0,0-.543-.312Z" transform="translate(-4.683 -6.397)" fill="#fb9d68"/>
            <path id="Trazado_878225" data-name="Trazado 878225" d="M15.35,24.13V22.373a2.311,2.311,0,0,1-1.205-.711,1.782,1.782,0,0,1-.383-1.155,1.633,1.633,0,0,1,.434-1.154,1.744,1.744,0,0,1,1.155-.539V18.4h.608v.415a1.8,1.8,0,0,1,1.061.455,1.752,1.752,0,0,1,.5,1l-1.061.138a.854.854,0,0,0-.5-.671v1.639a2.713,2.713,0,0,1,1.371.707,1.67,1.67,0,0,1,.364,1.113,1.861,1.861,0,0,1-.459,1.278,2.015,2.015,0,0,1-1.276.637V25.9H15.35v-.763a1.935,1.935,0,0,1-1.178-.541,2.222,2.222,0,0,1-.579-1.278l1.094-.117a1.4,1.4,0,0,0,.252.578,1.143,1.143,0,0,0,.411.353m0-4.4a.782.782,0,0,0-.394.285.732.732,0,0,0-.147.444.705.705,0,0,0,.134.413.938.938,0,0,0,.407.308Zm.608,4.46a.855.855,0,0,0,.511-.291.819.819,0,0,0,.2-.547.745.745,0,0,0-.166-.484,1.06,1.06,0,0,0-.543-.312Z" transform="translate(-4.683 -6.338)" fill="#fb9c66"/>
          </g>
        </g>
      </g>
    </g>
  </g>
</svg>
